<?xml version="1.0" encoding="utf-8"?>
<!-- Generator: Adobe Illustrator 24.0.1, SVG Export Plug-In . SVG Version: 6.00 Build 0)  -->
<svg version="1.1" id="Layer_1" xmlns="http://www.w3.org/2000/svg" xmlns:xlink="http://www.w3.org/1999/xlink" x="0px" y="0px"
	 viewBox="0 0 1081.36 653.03" style="enable-background:new 0 0 1081.36 653.03;" xml:space="preserve">
<style type="text/css">
	.st0{fill:url(#SVGID_1_);}
	.st1{fill:url(#SVGID_2_);}
	.st2{fill:url(#SVGID_3_);}
	.st3{fill:url(#SVGID_4_);}
	.st4{fill:url(#SVGID_5_);}
	.st5{fill:url(#SVGID_6_);}
	.st6{fill:url(#SVGID_7_);}
	.st7{fill:url(#SVGID_8_);}
	.st8{fill:url(#SVGID_9_);}
	.st9{fill:url(#SVGID_10_);}
	.st10{fill:url(#SVGID_11_);}
</style>
<g id="LexTel_x5F_Log">
	<g>
		<linearGradient id="SVGID_1_" gradientUnits="userSpaceOnUse" x1="428.9166" y1="243.5046" x2="428.9166" y2="243.5046">
			<stop  offset="0" style="stop-color:#F9F28F"/>
			<stop  offset="0.4372" style="stop-color:#BD8F4B"/>
		</linearGradient>
		<path class="st0" d="M428.92,243.5"/>
		<linearGradient id="SVGID_2_" gradientUnits="userSpaceOnUse" x1="428.9166" y1="326.5129" x2="726.1455" y2="326.5129">
			<stop  offset="0" style="stop-color:#F9F28F"/>
			<stop  offset="0.4372" style="stop-color:#BD8F4B"/>
		</linearGradient>
		<path class="st1" d="M488.77,243.5h-57.5c-1.3,0-2.36,1.06-2.36,2.36v58.05c0,19.2,2.06,35.54,6.2,49.01
			c4.13,13.47,10.66,24.4,19.6,32.8c8.93,8.4,20.47,14.47,34.6,18.2c14.13,3.74,31.34,5.6,51.61,5.6h176.02c6.13,0,9.2-2.93,9.2-8.8
			v-38c0-5.86-3.07-8.8-9.2-8.8H542.13c-10.4,0-19-0.86-25.8-2.6c-6.81-1.73-12.27-4.66-16.41-8.8c-4.13-4.13-7-9.73-8.6-16.8
			c-1.6-7.07-2.4-15.8-2.4-26.2v-4.44c0-1.3,1.06-2.36,2.36-2.36h230.11c1.3,0,2.36-1.06,2.36-2.36v-44.49
			c0-1.3-1.06-2.36-2.36-2.36H488.93"/>
		<linearGradient id="SVGID_3_" gradientUnits="userSpaceOnUse" x1="435.1449" y1="186.2916" x2="435.1449" y2="186.2916">
			<stop  offset="0" style="stop-color:#F9F28F"/>
			<stop  offset="0.4372" style="stop-color:#BD8F4B"/>
		</linearGradient>
		<path class="st2" d="M435.14,186.29"/>
		<linearGradient id="SVGID_4_" gradientUnits="userSpaceOnUse" x1="436.4006" y1="157.2947" x2="726.1455" y2="157.2947">
			<stop  offset="0" style="stop-color:#F9F28F"/>
			<stop  offset="0.4372" style="stop-color:#BD8F4B"/>
		</linearGradient>
		<path class="st3" d="M438.76,185.1c-1.62,0-2.76-1.61-2.23-3.15c4.1-11.73,9.96-20.53,18.18-28.26c8.93-8.4,20.47-14.53,34.6-18.4
			c14.13-3.86,31.34-5.8,51.61-5.8h176.02c6.13,0,9.2,2.94,9.2,8.8v38c0,5.87-3.07,8.8-9.2,8.8H542.13H438.76z"/>
	</g>
	<g>
		<linearGradient id="SVGID_5_" gradientUnits="userSpaceOnUse" x1="632.6234" y1="494.6925" x2="747.2445" y2="494.6925">
			<stop  offset="0" style="stop-color:#F9F28F"/>
			<stop  offset="0.4372" style="stop-color:#BD8F4B"/>
		</linearGradient>
		<path class="st4" d="M744.06,446.18c2.12,0,3.19,1.02,3.19,3.05v14.41c0,1.3-1.06,2.36-2.36,2.36h-41.99
			c-1.3,0-2.36,1.06-2.36,2.36v71.79c0,1.68-1.37,3.05-3.05,3.05h-15.1c-1.69,0-3.05-1.37-3.05-3.05v-71.79
			c0-1.3-1.06-2.36-2.36-2.36h-41.99c-1.3,0-2.36-1.06-2.36-2.36v-14.41c0-2.03,1.06-3.05,3.19-3.05H744.06z"/>
		<linearGradient id="SVGID_6_" gradientUnits="userSpaceOnUse" x1="755.7005" y1="494.6925" x2="858.6752" y2="494.6925">
			<stop  offset="0" style="stop-color:#F9F28F"/>
			<stop  offset="0.4372" style="stop-color:#BD8F4B"/>
		</linearGradient>
		<path class="st5" d="M855.49,446.18c2.12,0,3.19,1.02,3.19,3.05v13.17c0,2.03-1.06,3.05-3.19,3.05h-60.57
			c-3.6,0-6.58,0.3-8.94,0.9c-2.36,0.6-4.25,1.62-5.68,3.05c-1.43,1.43-2.43,3.37-2.98,5.82c-0.56,2.45-0.83,5.47-0.83,9.08v1.39h79
			c1.3,0,2.36,1.06,2.36,2.36v12.33c0,1.3-1.06,2.36-2.36,2.36h-76.64c-1.3,0-2.36,1.06-2.36,2.36l0,0c0,3.6,0.28,6.63,0.83,9.08
			c0.55,2.45,1.54,4.39,2.98,5.82c1.43,1.43,3.33,2.45,5.68,3.05c2.36,0.6,5.34,0.9,8.94,0.9h60.57c2.12,0,3.19,1.02,3.19,3.05
			v13.17c0,2.03-1.06,3.05-3.19,3.05h-60.98c-7.03,0-12.98-0.65-17.88-1.94c-4.9-1.29-8.89-3.39-11.99-6.31
			c-3.1-2.91-5.36-6.7-6.79-11.37c-1.43-4.66-2.15-10.32-2.15-16.98v-23.84c0-6.65,0.71-12.29,2.15-16.91
			c1.43-4.62,3.69-8.38,6.79-11.3s7.09-5.03,11.99-6.37c4.9-1.34,10.85-2.01,17.88-2.01H855.49z"/>
		<linearGradient id="SVGID_7_" gradientUnits="userSpaceOnUse" x1="874.3331" y1="494.6925" x2="973.1534" y2="494.6925">
			<stop  offset="0" style="stop-color:#F9F28F"/>
			<stop  offset="0.4372" style="stop-color:#BD8F4B"/>
		</linearGradient>
		<path class="st6" d="M893.18,446.18c1.3,0,2.36,1.06,2.36,2.36v55.99c0,3.7,0.3,6.77,0.9,9.22c0.6,2.45,1.59,4.39,2.98,5.82
			c1.39,1.43,3.26,2.45,5.61,3.05c2.36,0.6,5.34,0.9,8.94,0.9h56.13c1.68,0,3.05,1.36,3.05,3.05v13.58c0,1.68-1.37,3.05-3.05,3.05
			h-56.96c-7.02,0-12.98-0.65-17.88-1.94c-4.9-1.29-8.9-3.39-11.99-6.31c-3.1-2.91-5.36-6.7-6.79-11.37
			c-1.43-4.66-2.15-10.32-2.15-16.98v-57.38c0-2.03,1.06-3.05,3.19-3.05H893.18z"/>
	</g>
	<linearGradient id="SVGID_8_" gradientUnits="userSpaceOnUse" x1="0" y1="326.5129" x2="1070.4252" y2="326.5129">
		<stop  offset="0" style="stop-color:#F9F28F"/>
		<stop  offset="0.4372" style="stop-color:#BD8F4B"/>
	</linearGradient>
	<path class="st7" d="M0,56.24c0,0,541.33-145.16,918.08,167.28c0.03,0.03,0.06,0.05,0.09,0.07c3.53,2.6,226.58,168.51,50.27,429.43
		c0,0,336.62-361.25-213.3-591.32c-0.07-0.03-0.13-0.06-0.2-0.1C749.54,58.68,504.63-71.94,0,56.24z"/>
	<g>
		<linearGradient id="SVGID_9_" gradientUnits="userSpaceOnUse" x1="120.8174" y1="269.5557" x2="406.0487" y2="269.5557">
			<stop  offset="0" style="stop-color:#F9F28F"/>
			<stop  offset="0.4372" style="stop-color:#BD8F4B"/>
		</linearGradient>
		<path class="st8" d="M179.67,129.54c1.3,0,2.36,1.06,2.36,2.36v166.06c0,10.67,0.86,19.54,2.6,26.6c1.73,7.07,4.6,12.67,8.6,16.8
			c4,4.14,9.4,7.07,16.2,8.8c6.8,1.74,15.4,2.6,25.8,2.6h168.46c1.3,0,2.36,1.06,2.36,2.36v52.09c0,1.3-1.06,2.36-2.36,2.36H232.83
			c-20.27,0-37.48-1.86-51.61-5.6c-14.14-3.73-25.67-9.8-34.6-18.2c-8.94-8.4-15.47-19.33-19.6-32.8c-4.14-13.46-6.2-29.8-6.2-49.01
			V138.34c0-5.86,3.06-8.8,9.2-8.8H179.67z"/>
	</g>
	<g>
		<linearGradient id="SVGID_10_" gradientUnits="userSpaceOnUse" x1="970.7083" y1="173.6276" x2="1081.3624" y2="173.6276">
			<stop  offset="0" style="stop-color:#F9F28F"/>
			<stop  offset="0.4372" style="stop-color:#BD8F4B"/>
		</linearGradient>
		<path class="st9" d="M1081.26,136.42c-0.4-2.53-2.47-3.8-6.2-3.8h-52c-3.2,0-5.74,0.47-7.6,1.4c-1.87,0.94-3.6,2.34-5.2,4.2
			l-38.86,39.24c-0.93,0.94-0.91,2.46,0.05,3.37l34.97,33.15c0.93,0.89,2.41,0.86,3.31-0.06l69.34-70.9
			C1080.92,141.16,1081.66,138.96,1081.26,136.42z"/>
		<linearGradient id="SVGID_11_" gradientUnits="userSpaceOnUse" x1="743.7822" y1="322.1335" x2="950.0687" y2="322.1335">
			<stop  offset="0" style="stop-color:#F9F28F"/>
			<stop  offset="0.4372" style="stop-color:#BD8F4B"/>
		</linearGradient>
		<path class="st10" d="M914.23,232c-0.95-0.76-2.32-0.68-3.17,0.2l-6.16,6.36c-0.19,0.11-0.37,0.23-0.53,0.4l-2.82,2.91
			c-0.16,0.1-0.3,0.21-0.44,0.35L752.44,395.83l-6.35,6.56c-1.87,1.87-2.6,4.07-2.2,6.6c0.4,2.54,2.33,3.8,5.8,3.8h52
			c3.46,0,6.07-0.4,7.8-1.2c1.33-0.61,2.7-1.62,4.11-3.02c0.47-0.46,0.95-0.96,1.43-1.51l5.03-5.2l111.17-114.93
			c0.16-0.1,0.32-0.21,0.46-0.35l17.68-17.54c0.88-0.88,0.94-2.29,0.12-3.23C934.57,248.83,919.23,236.03,914.23,232z"/>
	</g>
</g>
</svg>
